Coordinates
version=1
nRows=22
nColumns=24
inDegrees=yes

Units are S.I. units (second, meters, Newtons, ...)
Angles are in degrees.

endheader
time	pelvis_tilt	pelvis_list	pelvis_rotation	pelvis_tx	pelvis_ty	pelvis_tz	hip_flexion_r	hip_adduction_r	hip_rotation_r	knee_angle_r	ankle_angle_r	subtalar_angle_r	mtp_angle_r	hip_flexion_l	hip_adduction_l	hip_rotation_l	knee_angle_l	ankle_angle_l	subtalar_angle_l	mtp_angle_l	lumbar_extension	lumbar_bending	lumbar_rotation
      1.23316667	     -0.86510418	      4.62663913	     -5.03860833	      0.24748766	      1.02675536	      0.27547901	     20.62043130	     -5.26226844	     -3.00376746	    -69.55610213	      2.82393813	     -5.80928454	     10.91865697	      8.94608137	      8.60710393	     -0.20441147	     -9.14674633	      5.26452883	    -10.29238521	     -1.98340961	     -5.23375117	     -8.13475925	      4.92965181
      1.23733333	     -0.93047432	      4.44088076	     -5.10904282	      0.25255781	      1.02742082	      0.27538580	     21.19781554	     -4.94730396	     -2.85133963	    -69.23471994	      3.34077773	     -5.90320988	     10.87747854	      8.58946862	      8.44231864	     -0.14032367	     -8.95922905	      5.36900132	    -10.35133287	     -1.99223082	     -5.25227927	     -7.90737308	      4.90175716
      1.24150000	     -0.98434439	      4.26868511	     -5.16163224	      0.25761129	      1.02807353	      0.27524368	     21.74911181	     -4.66091235	     -2.71596571	    -68.87178399	      3.92938708	     -5.84302372	     10.41644626	      8.20154213	      8.30956660	      0.07366676	     -8.72537754	      5.34447332	    -10.67812575	     -2.09378678	     -5.31029779	     -7.70276996	      4.81824843
      1.24566667	     -1.05378507	      4.06757254	     -5.22240262	      0.26269956	      1.02870583	      0.27516203	     22.28767188	     -4.32486642	     -2.58220868	    -68.41935692	      4.33818660	     -5.97449272	     10.37735870	      7.84990101	      8.12463276	      0.10958242	     -8.54214609	      5.46659919	    -10.67788845	     -2.10237358	     -5.30966587	     -7.45062570	      4.80212379
      1.24983333	     -1.11257220	      3.86022916	     -5.27118247	      0.26776269	      1.02934004	      0.27506455	     22.79423980	     -3.98823138	     -2.46387858	    -67.90702233	      4.74769659	     -6.06106612	     10.33226166	      7.49322442	      7.93641483	      0.16378120	     -8.37191976	      5.58099772	    -10.69996320	     -2.11323199	     -5.33873048	     -7.19347285	      4.77855554
      1.25400000	     -1.16615748	      3.63413801	     -5.29497330	      0.27281946	      1.02996886	      0.27493710	     23.26504915	     -3.64097407	     -2.37448667	    -67.32546539	      5.12782586	     -6.11028099	     10.24647028	      7.13536772	      7.73246590	      0.26348607	     -8.21705295	      5.67997937	    -10.75472628	     -2.13512525	     -5.40574924	     -6.91461919	      4.73918104
      1.25816667	     -1.21412837	      3.42946033	     -5.32304957	      0.27787798	      1.03055320	      0.27482439	     23.72000943	     -3.31714056	     -2.28088014	    -66.69951976	      5.49187489	     -6.17644285	     10.14939647	      6.76509965	      7.55225979	      0.36102253	     -8.03854188	      5.76994868	    -10.83001314	     -2.16148458	     -5.45468976	     -6.66331797	      4.68436102
      1.26233333	     -1.22326046	      3.23458340	     -5.34825574	      0.28295424	      1.03117255	      0.27471548	     24.11109535	     -3.01067433	     -2.19351022	    -66.01362019	      5.82235398	     -6.28347061	      9.72144312	      6.32686028	      7.39400858	      0.55450251	     -7.80281660	      5.77816292	    -11.10000602	     -2.28408980	     -5.55411916	     -6.44028902	      4.52936106
      1.26650000	     -1.29271217	      3.02564989	     -5.35699427	      0.28801241	      1.03167405	      0.27459210	     24.54638159	     -2.68849861	     -2.12205057	    -65.26933948	      6.12978750	     -6.32525713	      9.65207110	      5.99576271	      7.20475996	      0.61838704	     -7.65649074	      5.88876791	    -11.10473059	     -2.30473356	     -5.57036910	     -6.17321123	      4.52665434
      1.27066667	     -1.29490288	      2.82696209	     -5.36190902	      0.29308149	      1.03224179	      0.27447546	     24.88481629	     -2.38646829	     -2.05736240	    -64.46083652	      6.37844188	     -6.47185469	      9.38074020	      5.57112249	      7.03804885	      0.75125951	     -7.46431714	      5.96251668	    -11.23723395	     -2.39094795	     -5.67559864	     -5.94470943	      4.42057819
      1.27483333	     -1.36645115	      2.62165297	     -5.34384237	      0.29813253	      1.03266637	      0.27433111	     25.27894097	     -2.08122364	     -2.01432369	    -63.60156973	      6.62691439	     -6.52719664	      9.30199964	      5.24758176	      6.85511317	      0.85491555	     -7.32581143	      6.06645879	    -11.27383653	     -2.41653402	     -5.69848398	     -5.68127324	      4.38946527
      1.27900000	     -1.39370419	      2.42590437	     -5.31897473	      0.30318935	      1.03312317	      0.27418854	     25.60268288	     -1.79589421	     -1.97963210	    -62.68238651	      6.83221642	     -6.65299601	      9.21905869	      4.87179967	      6.68760455	      0.97136434	     -7.17443179	      6.16090672	    -11.34454553	     -2.44427547	     -5.77082098	     -5.43994148	      4.32357975
      1.28316667	     -1.43675451	      2.24068042	     -5.28247171	      0.30824444	      1.03351030	      0.27404115	     25.92431308	     -1.52440910	     -1.95250130	    -61.70843911	      6.99442887	     -6.81133661	      9.13019194	      4.51604950	      6.53072987	      1.10773751	     -7.02542693	      6.24692605	    -11.43781579	     -2.47488224	     -5.82738384	     -5.21181881	      4.23594331
      1.28733333	     -1.44706760	      2.06223174	     -5.23717848	      0.31332003	      1.03392333	      0.27389138	     26.18470548	     -1.26874034	     -1.93439116	    -60.66678158	      7.05544209	     -7.06271441	      8.96192537	      4.10483561	      6.38729311	      1.30760586	     -6.83132197	      6.30528063	    -11.59677004	     -2.53558808	     -5.91484976	     -5.00433684	      4.07934696
      1.29150000	     -1.47497251	      1.87616683	     -5.17536749	      0.31838445	      1.03426941	      0.27371560	     26.44015113	     -1.01246191	     -1.93126342	    -59.57064774	      7.14415728	     -7.29978419	      8.77766335	      3.73121126	      6.23263182	      1.48582966	     -6.67717775	      6.36730062	    -11.74061990	     -2.60541132	     -5.99376293	     -4.77372957	      3.95161149
      1.29566667	     -1.52839137	      1.70826046	     -5.09027763	      0.32342603	      1.03452311	      0.27351747	     26.70743662	     -0.78961987	     -1.95450176	    -58.43091965	      7.24775890	     -7.46938065	      8.68657085	      3.41496719	      6.09229081	      1.62484568	     -6.57706994	      6.45935942	    -11.81307241	     -2.63874261	     -6.03609065	     -4.55694655	      3.88503549
      1.29983333	     -1.54786945	      1.55109581	     -5.00802333	      0.32851018	      1.03480100	      0.27334594	     26.91122406	     -0.57638716	     -1.96860888	    -57.21908771	      7.19377483	     -7.83523067	      8.52003571	      3.02963908	      5.96729496	      1.82395025	     -6.40878383	      6.53053639	    -11.94431770	     -2.70109068	     -6.10575636	     -4.37446400	      3.71648557
      1.30400000	     -1.60438816	      1.37404745	     -4.88726491	      0.33357601	      1.03499601	      0.27310202	     27.12440330	     -0.36311277	     -2.02797473	    -55.94787439	      7.20050121	     -8.09843154	      8.41035152	      2.72150925	      5.81710097	      2.00186280	     -6.32101599	      6.62225961	    -12.02995991	     -2.74132032	     -6.15335371	     -4.13588401	      3.61517316
      1.30816667	     -1.61509352	      1.23195456	     -4.78373564	      0.33868470	      1.03521629	      0.27291196	     27.27068858	     -0.18147650	     -2.06251865	    -54.62178406	      7.08115510	     -8.52245965	      8.24307246	      2.33086457	      5.70687913	      2.20338886	     -6.15668461	      6.69096369	    -12.15472471	     -2.80436347	     -6.22267284	     -3.97522012	      3.43204716
      1.31233333	     -1.68092249	      1.09933151	     -4.64663316	      0.34378147	      1.03531061	      0.27265816	     27.45656541	     -0.02732083	     -2.12814141	    -53.25523408	      7.02850632	     -8.84146108	      7.48220334	      2.00208044	      5.60936852	      2.52991331	     -5.99067094	      6.64072708	    -12.49752733	     -3.13128784	     -6.25317641	     -3.79106979	      3.14435099
      1.31650000	     -1.70542399	      0.95885347	     -4.50990198	      0.34888974	      1.03543584	      0.27243885	     27.56641591	      0.13304331	     -2.20225147	    -51.81063537	      6.86253554	     -9.30529750	      7.34912449	      1.66234662	      5.49193106	      2.66161488	     -5.90122090	      6.80401209	    -12.45585865	     -3.17817503	     -6.31341092	     -3.62452427	      3.09625430
      1.32066667	     -1.75110848	      0.83930690	     -4.36022195	      0.35401436	      1.03549359	      0.27220341	     27.67754646	      0.26646529	     -2.27627623	    -50.31816253	      6.68104483	     -9.76349577	      7.19348187	      1.34180561	      5.39705339	      2.84805065	     -5.79888028	      6.89920947	    -12.50123486	     -3.23634417	     -6.35154119	     -3.46750034	      2.93004109
